<?xml version="1.0" standalone="no"?>
<!DOCTYPE svg PUBLIC "-//W3C//DTD SVG 20010904//EN"
 "http://www.w3.org/TR/2001/REC-SVG-20010904/DTD/svg10.dtd">
<svg version="1.0" xmlns="http://www.w3.org/2000/svg"
 width="512.000000pt" height="512.000000pt" viewBox="0 0 512.000000 512.000000"
 preserveAspectRatio="xMidYMid meet">
<metadata>
Created by potrace 1.11, written by Peter Selinger 2001-2013
</metadata>
<g transform="translate(0.000000,512.000000) scale(0.100000,-0.100000)"
fill="#000000" stroke="none">
<path d="M744 5109 c-11 -6 -28 -23 -37 -39 -15 -25 -17 -79 -17 -531 l0 -502
-69 -91 c-192 -255 -318 -502 -410 -801 -26 -86 -66 -265 -77 -345 -26 -194
-26 -557 0 -696 2 -11 7 -39 10 -64 4 -25 16 -83 28 -130 11 -47 21 -92 23
-100 10 -48 74 -230 112 -318 184 -431 459 -769 863 -1059 69 -50 228 -141
337 -194 108 -52 376 -151 443 -163 14 -2 45 -9 70 -15 173 -39 289 -52 495
-55 238 -4 341 5 556 50 632 132 1194 519 1548 1067 60 94 191 339 203 382 4
11 24 70 47 130 57 156 87 277 118 480 18 119 24 453 10 580 -28 263 -84 475
-198 752 -12 29 -10 36 19 90 125 236 147 519 58 772 -68 195 -210 376 -377
482 l-68 44 -1 103 c0 118 -14 154 -63 172 -41 14 -3594 13 -3623 -1z"/>
</g>
</svg>
